# xmcd
#
# Track frame offsets: 
#        150
#        18801
#        35507
#        67414
#        87613
#        104959
#        119711
#        146696
#        162187
#        178326
#        192253
#        215982
#        239521
#        260339
#        263603
#        286315
#
# Disc length: 4116 seconds
#
# Revision: 0
# Processed by: cddbd v1.5.2PL0 Copyright (c) Steve Scherf et al.
# Submitted via: ExactAudioCopyFreeDBPlugin 1.0
#
DISCID=07101210
DTITLE=Emmylou Harris And Linda Ronstadt - Live On KSWM (The 1999 Radi
DTITLE=o Broadcast) CD2
DYEAR=2015
DGENRE=Country
TTITLE0=Hello Stranger
TTITLE1=Sweet Spot
TTITLE2=He Was Mine
TTITLE3=Sisters Of Mercy
TTITLE4=This Is To Mother You
TTITLE5=Falling Down
TTITLE6=Goin' Back To Harlan
TTITLE7=Talk To Me Of Mendocino
TTITLE8=Heart Like A Wheel
TTITLE9=Wheels
TTITLE10=Born To Run
TTITLE11=Feels Like Home
TTITLE12=Rose Of Cimarron
TTITLE13=Intro
TTITLE14=Pancho And Lefty
TTITLE15=High Sierra
EXTD=
EXTT0=
EXTT1=
EXTT2=
EXTT3=
EXTT4=
EXTT5=
EXTT6=
EXTT7=
EXTT8=
EXTT9=
EXTT10=
EXTT11=
EXTT12=
EXTT13=
EXTT14=
EXTT15=
PLAYORDER=
